<svg xmlns="http://www.w3.org/2000/svg" xmlns:xlink="http://www.w3.org/1999/xlink" viewBox="0 0 766.33 427.55"><defs><style>.cls-1{fill:url(#linear-gradient);}.cls-2{fill:#e8e8e8;}</style><linearGradient id="linear-gradient" y1="213.77" x2="766.33" y2="213.77" gradientUnits="userSpaceOnUse"><stop offset="0" stop-color="#6b9fbf"/><stop offset="1" stop-color="#9b38a7"/></linearGradient></defs><g id="Layer_2" data-name="Layer 2"><g id="Layer_1-2" data-name="Layer 1"><polygon class="cls-1" points="766.33 0 766.33 305.1 317.35 427.55 0 427.55 0 0 766.33 0"/><path class="cls-2" d="M368.5,35.82l-1.32,140.56A88,88,0,0,1,326,250.09L261.11,290.8A109.47,109.47,0,0,1,143,289.69L64.13,238.1A55.7,55.7,0,0,1,38.92,191L40.4,32.74A39.47,39.47,0,0,1,58.38,0H347l3.67,2.4A39.51,39.51,0,0,1,368.5,35.82Z"/></g></g></svg>